<mxfile host="app.diagrams.net" agent="Mozilla/5.0 (Windows NT 10.0; Win64; x64) AppleWebKit/537.36 (KHTML, like Gecko) Chrome/129.0.0.0 Safari/537.36" version="24.7.17">
  <diagram name="Page-1" id="b5b7bab2-c9e2-2cf4-8b2a-24fd1a2a6d21">
    <mxGraphModel dx="1593" dy="829" grid="1" gridSize="10" guides="1" tooltips="1" connect="1" arrows="1" fold="1" page="1" pageScale="1" pageWidth="827" pageHeight="1169" background="none" math="0" shadow="0">
      <root>
        <mxCell id="0" />
        <mxCell id="1" parent="0" />
        <mxCell id="6e0c8c40b5770093-72" value="" style="shape=folder;fontStyle=1;spacingTop=10;tabWidth=194;tabHeight=22;tabPosition=left;html=1;rounded=0;shadow=0;comic=0;labelBackgroundColor=none;strokeWidth=1;fillColor=none;fontFamily=Verdana;fontSize=10;align=center;" parent="1" vertex="1">
          <mxGeometry x="326.5" y="280" width="1001" height="540" as="geometry" />
        </mxCell>
        <mxCell id="6e0c8c40b5770093-73" value="BookingApp" style="text;html=1;align=left;verticalAlign=top;spacingTop=-4;fontSize=10;fontFamily=Verdana" parent="1" vertex="1">
          <mxGeometry x="340" y="280" width="130" height="20" as="geometry" />
        </mxCell>
        <mxCell id="Cz1wVpWTQ5gK7auSOGIC-4" value="PackageUI" style="shape=folder;fontStyle=1;tabWidth=110;tabHeight=30;tabPosition=left;html=1;boundedLbl=1;labelInHeader=1;container=1;collapsible=0;whiteSpace=wrap;" vertex="1" parent="1">
          <mxGeometry x="350" y="410" width="350" height="270" as="geometry" />
        </mxCell>
        <mxCell id="Cz1wVpWTQ5gK7auSOGIC-5" value="" style="html=1;strokeColor=none;resizeWidth=1;resizeHeight=1;fillColor=none;part=1;connectable=0;allowArrows=0;deletable=0;whiteSpace=wrap;" vertex="1" parent="Cz1wVpWTQ5gK7auSOGIC-4">
          <mxGeometry width="350" height="189" relative="1" as="geometry">
            <mxPoint y="30" as="offset" />
          </mxGeometry>
        </mxCell>
        <mxCell id="Cz1wVpWTQ5gK7auSOGIC-18" value="AdminUI" style="shape=folder;fontStyle=1;tabWidth=36;tabHeight=20;tabPosition=left;html=1;boundedLbl=1;whiteSpace=wrap;" vertex="1" parent="Cz1wVpWTQ5gK7auSOGIC-4">
          <mxGeometry x="33.6" y="54.01" width="92.4" height="85.99" as="geometry" />
        </mxCell>
        <mxCell id="Cz1wVpWTQ5gK7auSOGIC-19" value="ClientUI" style="shape=folder;fontStyle=1;tabWidth=36;tabHeight=20;tabPosition=left;html=1;boundedLbl=1;whiteSpace=wrap;" vertex="1" parent="Cz1wVpWTQ5gK7auSOGIC-4">
          <mxGeometry x="185.94" y="54" width="92.4" height="86" as="geometry" />
        </mxCell>
        <mxCell id="Cz1wVpWTQ5gK7auSOGIC-21" value="InstructorsUI" style="shape=folder;fontStyle=1;tabWidth=36;tabHeight=20;tabPosition=left;html=1;boundedLbl=1;whiteSpace=wrap;" vertex="1" parent="Cz1wVpWTQ5gK7auSOGIC-4">
          <mxGeometry x="33.6" y="160" width="92.4" height="90" as="geometry" />
        </mxCell>
        <mxCell id="Cz1wVpWTQ5gK7auSOGIC-23" value="GeneralUI" style="shape=folder;fontStyle=1;tabWidth=36;tabHeight=20;tabPosition=left;html=1;boundedLbl=1;whiteSpace=wrap;" vertex="1" parent="Cz1wVpWTQ5gK7auSOGIC-4">
          <mxGeometry x="185.94" y="160" width="92.4" height="90" as="geometry" />
        </mxCell>
        <mxCell id="Cz1wVpWTQ5gK7auSOGIC-6" value="PackageActorsAndObjects" style="shape=folder;fontStyle=1;tabWidth=180;tabHeight=15;tabPosition=left;html=1;boundedLbl=1;labelInHeader=1;container=1;collapsible=0;whiteSpace=wrap;" vertex="1" parent="1">
          <mxGeometry x="930" y="690" width="250" height="70" as="geometry" />
        </mxCell>
        <mxCell id="Cz1wVpWTQ5gK7auSOGIC-7" value="" style="html=1;strokeColor=none;resizeWidth=1;resizeHeight=1;fillColor=none;part=1;connectable=0;allowArrows=0;deletable=0;whiteSpace=wrap;" vertex="1" parent="Cz1wVpWTQ5gK7auSOGIC-6">
          <mxGeometry width="450.00000000000006" height="49" relative="1" as="geometry">
            <mxPoint y="30" as="offset" />
          </mxGeometry>
        </mxCell>
        <mxCell id="Cz1wVpWTQ5gK7auSOGIC-8" value="Services" style="shape=folder;fontStyle=1;tabWidth=110;tabHeight=30;tabPosition=left;html=1;boundedLbl=1;labelInHeader=1;container=1;collapsible=0;whiteSpace=wrap;" vertex="1" parent="1">
          <mxGeometry x="890" y="330" width="150" height="100" as="geometry" />
        </mxCell>
        <mxCell id="Cz1wVpWTQ5gK7auSOGIC-9" value="" style="html=1;strokeColor=none;resizeWidth=1;resizeHeight=1;fillColor=none;part=1;connectable=0;allowArrows=0;deletable=0;whiteSpace=wrap;" vertex="1" parent="Cz1wVpWTQ5gK7auSOGIC-8">
          <mxGeometry width="150" height="70" relative="1" as="geometry">
            <mxPoint y="30" as="offset" />
          </mxGeometry>
        </mxCell>
        <mxCell id="Cz1wVpWTQ5gK7auSOGIC-12" value="" style="endArrow=open;html=1;rounded=0;align=center;verticalAlign=bottom;dashed=1;endFill=0;labelBackgroundColor=none;entryX=0.009;entryY=0.598;entryDx=0;entryDy=0;entryPerimeter=0;exitX=1.006;exitY=0.174;exitDx=0;exitDy=0;exitPerimeter=0;" edge="1" parent="1" source="Cz1wVpWTQ5gK7auSOGIC-4" target="Cz1wVpWTQ5gK7auSOGIC-8">
          <mxGeometry relative="1" as="geometry">
            <mxPoint x="720" y="449.76" as="sourcePoint" />
            <mxPoint x="880" y="449.76" as="targetPoint" />
          </mxGeometry>
        </mxCell>
        <mxCell id="Cz1wVpWTQ5gK7auSOGIC-13" value="" style="resizable=0;html=1;align=center;verticalAlign=top;labelBackgroundColor=none;" connectable="0" vertex="1" parent="Cz1wVpWTQ5gK7auSOGIC-12">
          <mxGeometry relative="1" as="geometry" />
        </mxCell>
        <mxCell id="Cz1wVpWTQ5gK7auSOGIC-16" value="" style="endArrow=open;html=1;rounded=0;align=center;verticalAlign=bottom;dashed=1;endFill=0;labelBackgroundColor=none;entryX=0.584;entryY=0.014;entryDx=0;entryDy=0;entryPerimeter=0;exitX=0.86;exitY=1.02;exitDx=0;exitDy=0;exitPerimeter=0;" edge="1" parent="1" source="Cz1wVpWTQ5gK7auSOGIC-8" target="Cz1wVpWTQ5gK7auSOGIC-6">
          <mxGeometry relative="1" as="geometry">
            <mxPoint x="850" y="458" as="sourcePoint" />
            <mxPoint x="1011" y="420" as="targetPoint" />
          </mxGeometry>
        </mxCell>
        <mxCell id="Cz1wVpWTQ5gK7auSOGIC-17" value="" style="resizable=0;html=1;align=center;verticalAlign=top;labelBackgroundColor=none;" connectable="0" vertex="1" parent="Cz1wVpWTQ5gK7auSOGIC-16">
          <mxGeometry relative="1" as="geometry" />
        </mxCell>
        <mxCell id="Cz1wVpWTQ5gK7auSOGIC-24" value="" style="endArrow=open;html=1;rounded=0;align=center;verticalAlign=bottom;dashed=1;endFill=0;labelBackgroundColor=none;entryX=0;entryY=0;entryDx=0;entryDy=42.5;entryPerimeter=0;exitX=1.003;exitY=0.7;exitDx=0;exitDy=0;exitPerimeter=0;" edge="1" parent="1" source="Cz1wVpWTQ5gK7auSOGIC-4" target="Cz1wVpWTQ5gK7auSOGIC-6">
          <mxGeometry relative="1" as="geometry">
            <mxPoint x="710" y="607" as="sourcePoint" />
            <mxPoint x="899" y="510" as="targetPoint" />
          </mxGeometry>
        </mxCell>
        <mxCell id="Cz1wVpWTQ5gK7auSOGIC-25" value="" style="resizable=0;html=1;align=center;verticalAlign=top;labelBackgroundColor=none;" connectable="0" vertex="1" parent="Cz1wVpWTQ5gK7auSOGIC-24">
          <mxGeometry relative="1" as="geometry" />
        </mxCell>
        <mxCell id="Cz1wVpWTQ5gK7auSOGIC-26" value="" style="endArrow=open;html=1;rounded=0;align=center;verticalAlign=bottom;dashed=1;endFill=0;labelBackgroundColor=none;entryX=0.5;entryY=1;entryDx=0;entryDy=0;entryPerimeter=0;exitX=0.278;exitY=0.01;exitDx=0;exitDy=0;exitPerimeter=0;" edge="1" parent="1" source="Cz1wVpWTQ5gK7auSOGIC-6" target="Cz1wVpWTQ5gK7auSOGIC-8">
          <mxGeometry relative="1" as="geometry">
            <mxPoint x="939.5" y="430" as="sourcePoint" />
            <mxPoint x="990.5" y="691" as="targetPoint" />
          </mxGeometry>
        </mxCell>
        <mxCell id="Cz1wVpWTQ5gK7auSOGIC-27" value="" style="resizable=0;html=1;align=center;verticalAlign=top;labelBackgroundColor=none;" connectable="0" vertex="1" parent="Cz1wVpWTQ5gK7auSOGIC-26">
          <mxGeometry relative="1" as="geometry" />
        </mxCell>
        <mxCell id="Cz1wVpWTQ5gK7auSOGIC-28" value="-PackageUI uses Services to establish connections to the database, login, register, etc. It also uses Actors and Objects (Client, etc) to create those types of objects when needed.&lt;div&gt;-Services uses PackageActorsAndObjects to create different types of objects.&lt;/div&gt;&lt;div&gt;-PackageActorsAndObjects use Services to establish connection to the database&lt;/div&gt;" style="shape=note;size=20;whiteSpace=wrap;html=1;align=left;" vertex="1" parent="1">
          <mxGeometry x="350" y="720" width="434" height="100" as="geometry" />
        </mxCell>
      </root>
    </mxGraphModel>
  </diagram>
</mxfile>
